HIERARCHY
ROOT Hips
{
	OFFSET 0.00000 0.00000 0.00000
	CHANNELS 6 Xposition Yposition Zposition Yrotation Zrotation Xrotation 
	JOINT Lumbar
	{
		OFFSET 0 0 0
		CHANNELS 3 Zrotation Xrotation Yrotation
		JOINT Neck
		{
			OFFSET 0.00 0.2701 0.00
			CHANNELS 3 Zrotation Xrotation Yrotation
			End Site
			{
				OFFSET 0.00 0.1379 0.00
			}
		}
		JOINT RightShoulder
		{
			OFFSET 0.0119 0.2289 0.1181
			CHANNELS 3 Zrotation Xrotation Yrotation
			JOINT RightElbow
			{
				OFFSET 0.00 -0.1475 0.00
				CHANNELS 2 Zrotation Yrotation
				JOINT RightWrist
				{
					OFFSET 0.00 -0.1605 0.00
					CHANNELS 2 Zrotation Xrotation
					End Site
					{
						OFFSET 0.0040 -0.1068 0.0006
					}
				}
			}
		}
		JOINT LeftShoulder
		{
			OFFSET 0.0119 0.2289 -0.1181
			CHANNELS 3 Zrotation Xrotation Yrotation
			JOINT LeftElbow
			{
				OFFSET 0.00 -0.1475 0.00
				CHANNELS 2 Zrotation Yrotation
				JOINT LeftWrist
				{
					OFFSET 0.00 -0.1605 0.00
					CHANNELS 2 Zrotation Xrotation
					End Site
					{
						OFFSET 0.0040 -0.1068 -0.0006
					}
				}
			}
		}
	}
	JOINT RightHip
	{
		OFFSET 0.0316 -0.0424 0.0458
		CHANNELS 3 Zrotation Xrotation Yrotation
		JOINT RightKnee
		{
			OFFSET 0.00 -0.2438 0.00
			CHANNELS 1 Zrotation
			JOINT RightAnkle
			{
				OFFSET 0.00 -0.2449 0.00
				CHANNELS 3 Zrotation Xrotation Yrotation
				End Site
				{
					OFFSET 0.1237 -0.0542 0.0051
				}
			}
		}
	}
	JOINT LeftHip
	{
		OFFSET 0.0316 -0.0424 -0.0458
		CHANNELS 3 Zrotation Xrotation Yrotation
		JOINT LeftKnee
		{
			OFFSET 0.00 -0.2438 0.00
			CHANNELS 1 Zrotation
			JOINT LeftAnkle
			{
				OFFSET 0.00 -0.2449 0.00
				CHANNELS 3 Zrotation Xrotation Yrotation
				End Site
				{
					OFFSET 0.1237 -0.0542 -0.0051
				}
			}
		}
	}
}
MOTION
Frames: 27
Frame Time: 0.02
0.27209 -0.17982 -0.05009 -535.87255 1.2437 -0.35606 15.77956 3.67938 -0.02287 -0.7936 0.58173 -2.11994 35.326 0.11949 11.43841 128.82544 89.50646 12.38437 3.41673 36.43722 -1.44536 -9.26814 133.90557 -110.38733 16.60303 -3.65521 75.28428 -0.36947 -12.60976 -92.51315 -9.1281 -3.17294 -3.90819 106.63803 -0.37438 28.20458 -69.61238 -14.85368 1.84112 3.51911
0.27252 -0.18017 -0.0497 -535.66312 1.22102 -0.36948 16.17799 3.69919 -0.20205 -0.70329 0.4452 -2.11994 35.7267 -0.07238 11.18606 128.83454 91.41325 12.60548 3.08533 36.72925 -1.69236 -9.10251 133.67625 -110.79346 16.7343 -3.61902 76.10833 -1.12586 -12.15628 -93.46594 -9.14709 -3.22732 -3.93548 106.6747 -0.09357 27.06071 -68.64774 -14.91264 1.84987 3.52762
0.27279 -0.1804 -0.04921 -535.41664 1.11492 -0.40328 16.65177 3.72692 -0.36564 -0.57306 0.31963 -2.11994 36.28516 -0.26912 10.90177 128.7705 93.83766 12.9052 2.64434 37.1018 -1.95991 -8.91606 133.37766 -111.29628 16.87921 -3.53801 77.10099 -2.05069 -11.68233 -94.48122 -9.21593 -3.23153 -3.94043 106.65709 0.00251 25.5984 -67.75255 -14.92117 1.83358 3.52133
0.27312 -0.18069 -0.04877 -535.18971 1.04338 -0.4281 17.09323 3.74853 -0.53134 -0.46161 0.19477 -2.11994 36.7643 -0.46031 10.63342 128.74142 95.95539 13.16064 2.27084 37.43951 -2.20606 -8.7431 133.1138 -111.73954 17.01338 -3.47937 78.01856 -2.89594 -11.20627 -95.45639 -9.26237 -3.25853 -3.95557 106.65245 0.19384 24.26444 -66.86656 -14.95533 1.82824 3.52159
0.27351 -0.18099 -0.04831 -534.94987 0.98243 -0.4522 17.53028 3.7811 -0.72111 -0.34519 0.04499 -2.11994 37.27643 -0.66675 10.35725 128.70671 98.37552 13.45105 1.82174 37.77391 -2.50548 -8.55233 132.83378 -112.24774 17.16739 -3.41272 78.93794 -3.75605 -10.77394 -96.48522 -9.30807 -3.28685 -3.97119 106.69579 0.34341 23.00507 -65.80345 -14.9778 1.82604 3.52326
0.27374 -0.18123 -0.04787 -534.72868 0.88 -0.48281 17.99383 3.79253 -0.85576 -0.22993 -0.04959 -2.11994 37.75687 -0.84175 10.09091 128.66626 100.29081 13.6881 1.5047 38.13314 -2.69853 -8.3943 132.57183 -112.64546 17.28329 -3.35231 79.89093 -4.62351 -10.2482 -97.41756 -9.36618 -3.30021 -3.98029 106.62748 0.53392 21.51365 -65.13538 -15.01154 1.81103 3.51826
0.27358 -0.18136 -0.04751 -534.56827 0.69521 -0.52207 18.50158 3.74471 -0.84328 -0.13437 0.00133 -2.11994 38.1135 -0.93364 9.85434 128.62115 100.65723 13.75406 1.57538 38.53669 -2.58544 -8.32846 132.37794 -112.69653 17.28783 -3.31527 80.88918 -5.48112 -9.46006 -98.04435 -9.45707 -3.28215 -3.97628 106.25658 0.88038 19.44666 -65.44846 -15.10335 1.76467 3.498
0.27326 -0.18144 -0.04716 -534.42815 0.46976 -0.5679 19.03461 3.67519 -0.77517 -0.04026 0.10826 -2.11994 38.43269 -0.9928 9.63005 128.57364 100.50372 13.7647 1.783 38.96264 -2.36565 -8.29695 132.20489 -112.63632 17.254 -3.28676 81.91537 -6.33783 -8.58133 -98.57648 -9.55702 -3.25094 -3.96647 105.77701 1.2734 17.15892 -66.17464 -15.20575 1.70651 3.47155
0.27299 -0.18153 -0.04682 -534.2787 0.2562 -0.61339 19.56246 3.61476 -0.73131 0.05813 0.19244 -2.11994 38.76693 -1.0635 9.40352 128.53141 100.60466 13.80351 1.93117 39.38068 -2.19894 -8.25202 132.02167 -112.63867 17.23938 -3.25743 82.9316 -7.18795 -7.75026 -99.16519 -9.64567 -3.22722 -3.95965 105.35183 1.64644 14.97911 -66.77046 -15.29388 1.65491 3.44809
0.27283 -0.18165 -0.04643 -534.12809 0.06853 -0.64826 20.06685 3.55751 -0.69147 0.14155 0.26572 -2.11994 39.1133 -1.14806 9.16113 128.4693 100.64198 13.8316 2.06596 39.7921 -2.01309 -8.19728 131.83839 -112.59377 17.21754 -3.21387 83.94219 -8.07473 -6.88923 -99.69439 -9.7656 -3.19569 -3.95068 104.9023 2.01047 12.75458 -67.12177 -15.42006 1.59727 3.42326
0.27241 -0.18171 -0.04614 -533.98561 -0.18295 -0.70675 20.62454 3.48885 -0.63004 0.25669 0.37469 -2.11994 39.42555 -1.19643 8.95589 128.44858 100.68795 13.86867 2.25981 40.2215 -1.84218 -8.17124 131.66182 -112.61962 17.20175 -3.20228 84.96908 -8.88121 -6.07159 -100.32995 -9.82286 -3.1776 -3.94495 104.48006 2.40381 10.57692 -68.08554 -15.47029 1.5499 3.40013
0.27133 -0.18166 -0.04611 -533.85721 -0.589 -0.827 21.32725 3.38982 -0.52466 0.44751 0.56997 -2.11994 39.63422 -1.14807 8.84397 128.54589 100.82534 13.93658 2.60803 40.6953 -1.73235 -8.21778 131.49275 -112.86696 17.20919 -3.27927 86.03106 -9.47825 -5.3773 -101.23222 -9.69572 -3.20281 -3.95071 104.14593 2.8922 8.56765 -70.58728 -15.30676 1.53227 3.38231
0.27001 -0.18155 -0.04618 -533.73712 -1.05976 -0.97097 22.08135 3.28071 -0.39943 0.67241 0.79886 -2.11994 39.81251 -1.06519 8.77038 128.68446 100.99615 14.01625 3.0072 41.18609 -1.64216 -8.2919 131.33116 -113.18864 17.22441 -3.38785 87.10765 -9.9914 -4.73333 -102.25323 -9.50625 -3.24155 -3.95974 103.84607 3.40464 6.61819 -73.69966 -15.06655 1.52575 3.36663
0.2688 -0.18145 -0.04619 -533.61563 -1.50791 -1.10529 22.80918 3.17901 -0.28169 0.88952 1.01142 -2.11994 40.01607 -1.00135 8.68348 128.80271 101.19038 14.09533 3.36693 41.66837 -1.54717 -8.35228 131.1704 -113.47701 17.23799 -3.48068 88.17933 -10.53418 -4.07879 -103.2532 -9.35157 -3.27257 -3.96672 103.53959 3.89026 4.65202 -76.56739 -14.86321 1.51528 3.35069
0.26757 -0.18139 -0.04625 -533.48476 -1.92817 -1.23538 23.55118 3.06494 -0.16737 1.07401 1.23059 -2.11994 40.17003 -0.9226 8.57955 128.9284 101.211 14.15329 3.79884 42.1543 -1.43164 -8.41863 130.99254 -113.76121 17.24262 -3.5799 89.24691 -11.11285 -3.36949 -104.11339 -9.17162 -3.31031 -3.97618 103.19064 4.44443 2.63115 -79.31431 -14.65338 1.49983 3.33167
0.26634 -0.18125 -0.04622 -533.37516 -2.42217 -1.37945 24.27436 2.9741 -0.04328 1.33465 1.443 -2.11994 40.42054 -0.86664 8.52017 129.04722 101.59884 14.25771 4.09237 42.637 -1.36422 -8.47905 130.85172 -114.07113 17.26777 -3.67292 90.32348 -11.59687 -2.78693 -105.29107 -9.02729 -3.3367 -3.98092 102.94078 4.86099 0.74459 -82.44813 -14.43657 1.49743 3.31947
0.26514 -0.18092 -0.04595 -533.32212 -3.09645 -1.55952 24.9425 2.95364 0.11403 1.796 1.63037 -2.11994 40.94486 -0.88662 8.57314 129.14754 103.0722 14.49643 3.97669 43.10066 -1.43173 -8.51264 130.81203 -114.45193 17.35175 -3.74361 91.44293 -11.83947 -2.54639 -107.34233 -9.0148 -3.33501 -3.97563 102.94749 4.89138 -0.81165 -86.53508 -14.23841 1.52948 3.32713
0.26395 -0.18051 -0.0456 -533.29015 -3.84357 -1.75218 25.5877 2.95635 0.27813 2.33278 1.8091 -2.11994 41.56725 -0.93007 8.66978 129.23763 104.90186 14.7801 3.722 43.56131 -1.54636 -8.53977 130.80894 -114.85322 17.45546 -3.8064 92.5663 -11.98973 -2.4311 -109.70384 -9.03722 -3.32034 -3.96488 103.05486 4.78243 -2.22861 -90.98075 -14.03266 1.5741 3.34132
0.26279 -0.18013 -0.04528 -533.24849 -4.56251 -1.93697 26.23741 2.94607 0.43156 2.83614 1.99034 -2.11994 42.14554 -0.95988 8.74726 129.32544 106.51841 15.03765 3.53991 44.02735 -1.63527 -8.57221 130.78885 -115.23389 17.54779 -3.87118 93.67409 -12.1827 -2.25629 -111.90778 -9.0312 -3.30725 -3.95412 103.12245 4.73707 -3.69144 -95.23903 -13.81728 1.61237 3.35157
0.2615 -0.17977 -0.04496 -533.20753 -5.26434 -2.13175 26.91516 2.94571 0.61772 3.3381 2.17895 -2.11994 42.72229 -1.00085 8.82333 129.4437 108.35102 15.31968 3.32005 44.47771 -1.74244 -8.59588 130.77145 -115.66489 17.65091 -3.94405 94.84242 -12.36986 -2.09494 -114.18905 -9.07461 -3.3125 -3.95372 103.16617 4.69091 -5.22667 -99.62618 -13.65282 1.65391 3.36601
0.26047 -0.17935 -0.04463 -533.17012 -6.01653 -2.30829 27.52683 2.93046 0.73706 3.85912 2.34951 -2.11994 43.32402 -1.02484 8.91201 129.49585 109.81897 15.56116 3.14494 44.95892 -1.82319 -8.63559 130.75596 -115.9949 17.7357 -3.99752 95.8832 -12.54795 -1.93368 -116.37731 -9.02602 -3.27674 -3.9307 103.28286 4.61372 -6.57782 -103.81652 -13.38355 1.69122 3.37321
0.26014 -0.17877 -0.04425 -533.13637 -6.9039 -2.4321 27.97411 2.86734 0.67 4.42511 2.47355 -2.11994 43.98741 -0.99433 9.02632 129.3651 110.18327 15.68042 3.12883 45.53347 -1.81359 -8.72386 130.74578 -116.03949 17.76871 -4.00104 96.58992 -12.72646 -1.7505 -118.26668 -8.69941 -3.12671 -3.84408 103.57832 4.47875 -7.46229 -107.41862 -12.80978 1.71562 3.35894
0.26006 -0.17813 -0.04386 -533.10567 -7.83611 -2.53686 28.35284 2.78878 0.53537 5.00519 2.57913 -2.11994 44.66962 -0.94635 9.15133 129.16842 110.16982 15.75711 3.16187 46.13769 -1.77668 -8.82784 130.73443 -115.98033 17.78171 -3.98469 97.1649 -12.89867 -1.56138 -120.04438 -8.28232 -2.93644 -3.73528 103.94326 4.31847 -8.16487 -110.79826 -12.13478 1.73472 3.33704
0.25985 -0.17752 -0.04349 -533.0741 -8.73877 -2.64973 28.7548 2.71794 0.43172 5.57195 2.6924 -2.11994 45.33243 -0.90792 9.27029 129.00368 110.33561 15.85276 3.17135 46.72336 -1.75618 -8.92271 130.7178 -115.97103 17.80164 -3.9763 97.78706 -13.07257 -1.36902 -121.85096 -7.91696 -2.76741 -3.6383 104.27492 4.17363 -8.94646 -114.24952 -11.51702 1.75518 3.31861
0.25969 -0.17689 -0.04309 -533.04087 -9.68431 -2.76534 29.19044 2.64457 0.32724 6.17182 2.80906 -2.11994 46.04438 -0.86397 9.39585 128.83052 110.48242 15.95166 3.18171 47.33028 -1.72093 -9.02569 130.72743 -115.95659 17.83207 -3.97267 98.46123 -13.24909 -1.20567 -123.76262 -7.50756 -2.58595 -3.53395 104.61715 4.00704 -9.73985 -117.84166 -10.84966 1.78127 3.30067
0.25949 -0.17629 -0.04273 -533.0118 -10.54827 -2.87058 29.5387 2.57297 0.20828 6.70352 2.91349 -2.11994 46.65724 -0.82649 9.5096 128.65902 110.57373 16.03304 3.20304 47.90006 -1.70869 -9.1156 130.68107 -115.92102 17.83477 -3.95389 98.99788 -13.4187 -0.97945 -125.42255 -7.16849 -2.42039 -3.43953 104.95274 3.88193 -10.46567 -121.07837 -10.26399 1.7933 3.27948
0.25915 -0.1758 -0.04251 -532.99107 -11.19215 -2.95113 29.67324 2.50574 0.06648 7.05643 2.99622 -2.11994 46.9907 -0.81593 9.58777 128.51136 110.60812 16.07676 3.24925 48.35979 -1.77158 -9.16488 130.48474 -115.91327 17.77358 -3.90349 99.16851 -13.58149 -0.57487 -126.43332 -7.04124 -2.31379 -3.38006 105.25079 3.87505 -11.06304 -123.4213 -9.90881 1.77575 3.25411
